<?xml version="1.0" standalone="no"?>
<!DOCTYPE svg PUBLIC "-//W3C//DTD SVG 20010904//EN"
 "http://www.w3.org/TR/2001/REC-SVG-20010904/DTD/svg10.dtd">
<svg version="1.0" xmlns="http://www.w3.org/2000/svg"
 width="1033.000000pt" height="1033.000000pt" viewBox="0 0 1033.000000 1033.000000"
 preserveAspectRatio="xMidYMid meet">
<metadata>
Created by potrace 1.14, written by Peter Selinger 2001-2017
</metadata>
<g transform="translate(0.000000,1033.000000) scale(0.100000,-0.100000)"
fill="#000000" stroke="none">
<path d="M6638 8020 c-90 -19 -126 -30 -338 -107 -152 -55 -159 -58 -170 -89
-6 -15 -18 -24 -32 -25 -41 -2 -242 2 -278 6 -19 2 -78 6 -130 10 -52 4 -102
9 -110 10 -8 2 -53 6 -100 10 -47 3 -101 8 -120 11 -19 2 -64 6 -100 9 -36 3
-74 7 -86 9 -12 2 -57 7 -100 11 -43 3 -90 8 -104 11 -14 2 -56 6 -95 9 -38 3
-81 7 -95 10 -14 2 -54 7 -90 10 -82 7 -158 15 -190 20 -14 2 -59 7 -100 10
-41 4 -88 8 -105 10 -16 2 -59 6 -95 10 -36 3 -76 8 -90 10 -14 2 -79 9 -145
15 -189 17 -218 20 -252 31 -21 7 -38 7 -50 0 -10 -5 -39 -12 -63 -16 -25 -3
-56 -8 -70 -10 -14 -2 -50 -7 -80 -10 -86 -9 -337 -54 -425 -76 -196 -49 -382
-133 -605 -273 -161 -101 -317 -213 -485 -349 -117 -94 -179 -171 -260 -322
-74 -139 -122 -203 -269 -355 -143 -149 -244 -270 -303 -365 -71 -112 -140
-294 -158 -416 -4 -24 -8 -46 -10 -49 -2 -3 -6 -24 -9 -46 -4 -22 -9 -51 -11
-64 -3 -14 -8 -41 -11 -60 -59 -376 -139 -630 -330 -1047 -13 -29 -35 -77 -48
-105 -13 -29 -44 -98 -69 -153 -25 -55 -73 -161 -107 -235 -34 -74 -79 -177
-101 -228 -37 -87 -59 -134 -167 -362 -66 -140 -75 -174 -75 -285 0 -86 4
-113 31 -192 37 -108 88 -210 174 -348 54 -85 70 -104 113 -127 28 -14 70 -29
95 -33 24 -4 47 -8 50 -10 28 -17 494 -26 624 -12 109 12 138 31 151 96 9 48
-56 165 -107 192 -11 6 -52 13 -91 15 -135 7 -144 11 -153 61 -3 15 -10 33
-15 40 -6 6 -8 21 -4 33 19 61 275 329 759 795 393 379 499 488 564 577 74
103 96 114 168 88 101 -35 197 -113 424 -340 212 -211 297 -345 565 -885 208
-420 287 -555 377 -645 97 -98 148 -117 328 -125 52 -2 111 -7 130 -10 19 -3
49 -7 65 -9 17 -3 44 -7 60 -10 17 -2 53 -7 80 -11 28 -3 66 -8 85 -10 102
-13 233 -20 385 -20 199 0 267 15 322 70 71 71 29 131 -137 200 -115 48 -244
116 -289 153 -71 58 -104 149 -116 319 -3 43 -8 114 -11 158 -8 111 -40 255
-135 602 -11 40 -22 80 -23 90 -2 10 -10 38 -17 63 -7 25 -14 54 -16 65 -2 11
-17 70 -33 132 -17 61 -27 118 -24 127 9 23 31 28 154 33 149 5 175 13 268 78
233 163 255 174 288 150 15 -10 19 -29 20 -98 1 -46 -2 -109 -7 -138 -5 -30
-12 -74 -15 -99 -3 -25 -8 -54 -10 -65 -5 -23 -21 -123 -29 -180 -4 -22 -8
-51 -11 -65 -2 -14 -6 -47 -9 -75 -4 -27 -8 -63 -10 -80 -6 -44 -7 -248 -1
-265 2 -8 7 -42 10 -75 11 -114 17 -150 41 -272 37 -182 79 -292 158 -408 85
-126 204 -201 442 -278 192 -62 494 -120 625 -121 83 0 129 30 154 100 27 77
-3 202 -58 237 -24 16 -94 38 -136 42 -14 2 -47 8 -75 15 -27 6 -57 13 -65 15
-66 15 -120 57 -140 110 -11 29 -15 194 -5 238 2 12 6 38 9 57 3 19 8 58 11
85 4 28 20 104 36 170 48 198 97 305 138 305 9 0 58 -40 108 -89 146 -142 182
-163 478 -271 252 -91 278 -101 300 -110 11 -4 58 -23 105 -41 127 -48 264
-115 300 -146 42 -35 61 -79 48 -113 -5 -14 -32 -61 -61 -104 l-52 -80 1 -105
c2 -323 79 -381 323 -240 79 46 169 130 216 204 74 116 167 435 182 625 24
316 -28 421 -332 668 -218 179 -291 266 -312 377 -16 82 -7 246 21 375 15 69
39 188 53 265 37 209 80 315 147 365 84 63 225 105 391 117 190 14 626 7 780
-12 17 -2 55 -6 85 -9 30 -3 73 -8 95 -11 22 -3 58 -7 80 -10 22 -2 81 -9 130
-15 50 -6 106 -13 125 -15 19 -2 60 -7 90 -11 204 -28 401 17 602 137 39 22
100 57 136 76 37 19 80 49 96 65 24 26 27 37 23 70 -7 53 -26 78 -105 141 -38
30 -85 72 -104 93 -208 222 -286 311 -358 408 l-45 60 0 92 -1 92 -45 69 c-39
58 -201 268 -218 283 -6 4 -88 104 -124 150 -7 8 -40 49 -73 90 -105 129 -130
172 -149 257 -9 43 -22 87 -28 98 -27 51 -79 58 -147 20 -128 -71 -151 -79
-240 -79 -47 -1 -105 3 -130 7 -25 5 -54 10 -65 12 -38 7 -161 35 -285 65
-299 74 -318 76 -571 71 -109 -3 -165 24 -318 152 -265 222 -314 254 -431 285
-45 11 -175 7 -252 -8z"/>
</g>
</svg>
